<?xml version="1.0" encoding="UTF-8" standalone="no"?>
<svg
   id="Layer_1"
   data-name="Layer 1"
   viewBox="0 0 4197.7862 1323.9701"
   version="1.1"
   sodipodi:docname="SVG logos-01.svg"
   width="4197.7861"
   height="1323.9701"
   inkscape:version="1.1 (c68e22c387, 2021-05-23)"
   xmlns:inkscape="http://www.inkscape.org/namespaces/inkscape"
   xmlns:sodipodi="http://sodipodi.sourceforge.net/DTD/sodipodi-0.dtd"
   xmlns="http://www.w3.org/2000/svg"
   xmlns:svg="http://www.w3.org/2000/svg"
   xmlns:rdf="http://www.w3.org/1999/02/22-rdf-syntax-ns#"
   xmlns:cc="http://creativecommons.org/ns#"
   xmlns:dc="http://purl.org/dc/elements/1.1/">
  <sodipodi:namedview
     id="namedview66"
     pagecolor="#ffffff"
     bordercolor="#666666"
     borderopacity="1.0"
     inkscape:pageshadow="2"
     inkscape:pageopacity="0.0"
     inkscape:pagecheckerboard="0"
     showgrid="false"
     fit-margin-top="0"
     fit-margin-left="0"
     fit-margin-right="0"
     fit-margin-bottom="0"
     inkscape:zoom="0.21483586"
     inkscape:cx="1619.8413"
     inkscape:cy="1389.4328"
     inkscape:window-width="5120"
     inkscape:window-height="1377"
     inkscape:window-x="-8"
     inkscape:window-y="-8"
     inkscape:window-maximized="1"
     inkscape:current-layer="Layer_1" />
  <defs
     id="defs7">
    <style
       id="style2">.cls-1{fill:#194789;}.cls-2{clip-path:url(#clip-path);}.cls-3{fill:#161e29;}.cls-4{fill:#5785c4;}.cls-10,.cls-4,.cls-5,.cls-6{fill-rule:evenodd;}.cls-5{fill:#a7acbd;}.cls-6,.cls-9{fill:#151f2b;}.cls-7{fill:#383838;}.cls-10,.cls-8{fill:none;}</style>
    <clipPath
       id="clip-path">
      <rect
         class="cls-1"
         x="5323.4702"
         y="-591.71997"
         width="2878.25"
         height="6352"
         id="rect4" />
    </clipPath>
  </defs>
  <title
     id="title9">SVG logos</title>
  <path
     class="cls-4"
     d="m 336.97594,662.6401 c 12.93,89.45 -50.75,179.9 -150.24,190.83 -86.57,9.94 -173.129999,-52.68 -185.0699992,-144.11 -12.9299998,-93.43 50.7500002,-178.91 144.3099992,-191.83 92.54,-12.92 177.11,50.69 191,145.11 z"
     id="path17" />
  <path
     class="cls-4"
     d="m 1117.5759,92.600095 c 8,57.740005 -32.83,112.500005 -89.53,120.460005 -60.68996,8 -114.40996,-31.86 -122.36996,-91.59 -9,-62.720005 34.82,-112.5000048 91.53,-120.4700048 57.69996,-8 111.41996,32.8599998 120.36996,91.5999998 z"
     id="path19" />
  <path
     class="cls-5"
     d="m 1170.5859,1222.4301 c -58.62,10 -113.26,-33.9 -121.21,-90.74 -7.94,-57.84 32.79,-112.69 90.41,-120.66 59.61,-9 112.26,31.91 121.2,90.74 9.94,58.84 -31.79,113.68 -90.4,120.66 z"
     id="path21" />
  <path
     class="cls-4"
     d="m 895.97594,605.5701 c 5,38.75 -20.87,71.54 -57.62,75.51 -36.76,5 -70.54,-21.86 -74.51,-56.63 -5,-38.75 20.86,-71.54 59.61,-75.51 34.77,-5 67.55,20.86 72.52,56.63 z"
     id="path23" />
  <path
     class="cls-6"
     d="m 1527.3959,595.9401 c 0,-137.41 -111.56,-249.94 -250,-249.94 a 249.77,249.77 0 0 0 -178.3,74.69 c -29.89,29.87 -51.8,64.72 -63.75,106.54 -12.95,44.82 -16.94,91.62 -21.92,138.42 -3,25.89 -8,50.78 -20.91996,73.69 -19.92,35.85 -45.82,65.72 -82.68,85.64 -55.78,30.87 -113.56,35.84 -173.32,13.94 -4,-1 -7,-3 -10,-4 -54.78,-22.89 -92.63,-63.74 -112.53,-121.47 -19.95,-55.77 -16,-109.54 10.93,-162.27 8,-15.93 18.93,-30.87 28.89,-45.8 13.94,-18.92 89.65,-109.54 102.6,-136.43 11.95,-23.89 22.91,-76.67 21.91,-76.67 a 300.44,300.44 0 0 0 2,-30.87 c 0,-137.42 -111.57,-249.940005 -250,-249.940005 -134.48,0 -245,106.550005 -249,240.000005 l -1,-1 c -2,32.86 4,66.71 15.94,98.58 17.93,46.8 48.81,83.64 87.66,114.51 28.88,22.91 58.77,44.82 86.66,69.71 24.9,21.91 41.84,50.79 50.8,83.65 a 311.81,311.81 0 0 1 12,85.63 c 0,34.86 -6,67.72 -24.91,97.59 -14.94,24.9 -34.86,45.81 -56.78,65.72 a 136.74,136.74 0 0 0 -16.93,16.93 c -33.87,32.86 -57.78,74.69 -69.73,121.49 -7,23.9 -8,73.69 -7,73.69 6,136.42 118.54,246 257,246 a 256.85,256.85 0 0 0 235.09,-153.36 v 1 c 5,-11.95 9,-23.9 12.94,-35.85 3,-10 5,-20.91 7,-30.87 10,-55.76 10,-112.52 41.84,-163.31 39.84,-64.72 110.56996,-114.51 188.25996,-116.5 35.86,-1 70.73,6 105.59,13.94 56.78,12.94 111.57,12.94 166.36,-10 11,-6 33.86,-18.92 32.87,-18.92 72.72,-41.82 122.52,-121.49 122.52,-214.1 z"
     id="path25" />
  <path
     class="cls-7"
     d="m 1814.5259,541.2401 8.68,-11 c 24.87,24.87 61.59,39.87 98.7,39.87 45,0 77,-24.47 77,-58.82 0,-30.79 -23.29,-48.56 -82.11,-62.38 -63.56,-14.6 -88.83,-33.95 -88.83,-67.9 0,-45.4 35.92,-77.38 86.85,-77.38 33.17,0 67.12,14.21 93.57,38.69 l -8.69,11 c -23.29,-22.5 -54.08,-35.53 -85.67,-35.53 -42.24,0 -71.85,25.66 -71.85,62 0,26.06 23.29,41.85 81.72,56.06 63.56,15 89.23,36.32 89.23,74.23 0,43.42 -37.9,74.22 -91.6,74.22 -39.89,-0.02 -79.37,-15.82 -107,-43.06 z"
     id="path27" />
  <path
     class="cls-7"
     d="m 2232.2059,469.7901 -110.54,-161.08 h 18.16 l 99.49,144.89 99.48,-144.89 h 18.18 l -110.56,161.08 v 110.14 h -14.21 z"
     id="path29" />
  <path
     class="cls-7"
     d="m 2481.3159,308.7101 h 14.21 l 184.76,249.11 v -249.11 h 14.21 v 271.22 h -14.21 l -184.76,-249.11 v 249.11 h -14.21 z"
     id="path31" />
  <path
     class="cls-7"
     d="m 3033.9759,510.8501 h -162.61 l -30.39,69.08 h -15.8 l 119.63,-271.22 h 15.79 l 119.62,271.22 h -15.79 z m -6.32,-14.22 -75,-170.15 -75,170.15 z"
     id="path33" />
  <path
     class="cls-7"
     d="m 3204.1659,308.7101 h 114.09 c 54.88,0 94,34.35 94,82.91 0,48.56 -39.08,82.9 -94,82.9 h -99.88 v 105.41 h -14.21 z m 111.33,151.6 c 48.16,0 82.51,-28.42 82.51,-68.69 0,-40.27 -34.35,-68.7 -82.51,-68.7 h -97.12 v 137.39 z"
     id="path35" />
  <path
     class="cls-7"
     d="m 3524.3359,541.2401 8.68,-11 c 24.88,24.87 61.59,39.87 98.7,39.87 45,0 77,-24.47 77,-58.82 0,-30.79 -23.3,-48.56 -82.12,-62.38 -63.56,-14.6 -88.83,-33.95 -88.83,-67.9 0,-45.4 35.93,-77.38 86.86,-77.38 33.16,0 67.11,14.21 93.56,38.69 l -8.68,11 c -23.3,-22.5 -54.09,-35.53 -85.67,-35.53 -42.25,0 -71.86,25.66 -71.86,62 0,26.06 23.3,41.85 81.73,56.06 63.56,15 89.22,36.32 89.22,74.23 0,43.42 -37.9,74.22 -91.59,74.22 -39.89,-0.02 -79.36,-15.82 -107,-43.06 z"
     id="path37" />
  <path
     class="cls-7"
     d="m 3869.7759,322.9201 v 111.73 h 151.6 v 14.21 h -151.6 v 116.86 h 163.83 v 14.21 h -178.05 v -271.22 h 178.05 v 14.21 z"
     id="path39" />
  <path
     class="cls-9"
     d="m 1984.6359,930.1801 h -131.07 l -20.53,49 h -54.88 l 113.31,-271.22 h 54.87 l 113.31,271.22 h -54.48 z m -17.77,-42.64 -47.77,-114.09 -47.77,114.09 z"
     id="path43" />
  <path
     class="cls-9"
     d="m 2120.4359,707.9501 h 49.35 l 143.31,190.69 v -190.69 h 49 v 271.23 h -49 l -143.31,-190.68 v 190.68 h -49.35 z"
     id="path45" />
  <path
     class="cls-9"
     d="m 2628.9159,930.1801 h -131.07 l -20.53,49 h -54.87 l 113.3,-271.22 h 54.88 l 113.35,271.22 h -54.48 z m -17.76,-42.64 -47.77,-114.09 -47.77,114.09 z"
     id="path47" />
  <path
     class="cls-9"
     d="m 2947.1159,934.1801 v 45 h -188.31 v -271.23 h 49 v 226.23 z"
     id="path49" />
  <path
     class="cls-9"
     d="m 3090.8159,877.3201 -107.38,-169.37 h 58 l 74.62,122.78 75.8,-122.78 h 56.12 l -107,169.37 v 101.86 h -50.14 z"
     id="path51" />
  <path
     class="cls-9"
     d="m 3374.2659,752.9601 h -86.85 v -45 h 222.66 v 45 h -86.85 v 226.22 h -49 z"
     id="path53" />
  <path
     class="cls-9"
     d="m 3574.8159,707.9501 h 49 v 271.23 h -49 z"
     id="path55" />
  <path
     class="cls-9"
     d="m 3691.6659,843.3701 c 0,-76.2 65.14,-140.15 142.52,-140.15 39.88,0 76.2,17 102.25,43.82 l -35.13,32.77 c -16.58,-19.35 -41.06,-31.59 -67.12,-31.59 -50.13,0 -92.38,43.43 -92.38,95.15 0,52.11 42.25,95.54 92.38,95.54 26.46,0 50.54,-12.24 67.51,-31.59 l 34.74,32.37 c -26.05,27.25 -62.37,44.22 -102.25,44.22 -77.38,0 -142.52,-64.35 -142.52,-140.54 z"
     id="path57" />
  <path
     class="cls-9"
     d="m 3979.8559,939.6901 28.43,-35.13 c 24.87,22.5 53.69,36.71 89.22,36.71 33.56,0 50.93,-16.58 50.93,-35.92 0,-22.5 -19.34,-30 -62.77,-40.27 -56.06,-13 -95.15,-29.21 -95.15,-80.14 0,-47.38 40.27,-82.12 97.52,-82.12 43,0 75.4,14.61 102.64,37.9 l -26.84,36.32 c -23.69,-20.53 -50.93,-32 -77.78,-32 -27.24,0 -45.79,16.58 -45.79,35.53 0,22.11 20.13,30 63.16,39.88 56.46,12.63 94.36,30.79 94.36,80.14 0,48.56 -37.11,82.91 -101.86,82.91 -46.58,0.02 -86.06,-15.78 -116.07,-43.81 z"
     id="path59" />
  <metadata
     id="metadata885">
    <rdf:RDF>
      <cc:Work
         rdf:about="">
        <dc:title>SVG logos</dc:title>
      </cc:Work>
    </rdf:RDF>
  </metadata>
</svg>
